<svg width="40" height="40" viewBox="0 0 40 40" fill="none" xmlns="http://www.w3.org/2000/svg">
<g clip-path="url(#clip0_5354_9)">
<path d="M33.2707 28.2902H35.9534C34.5935 30.8044 32.6484 32.9577 30.254 34.5821C27.2892 36.5933 23.8194 37.6563 20.2196 37.6563C15.4445 37.6563 10.9552 35.8 7.57875 32.4293C4.20289 29.0591 2.34375 24.5784 2.34375 19.8125H0C0 25.2052 2.10344 30.275 5.92281 34.088C9.74172 37.9005 14.8191 40.0001 20.2196 40.0001C24.2904 40.0001 28.2152 38.7973 31.5698 36.5216C34.0734 34.8233 36.1425 32.6127 37.6562 30.0407V32.6664H40V25.9464H33.2707V28.2902Z" fill="#00A738"/>
<path d="M6.7293 11.7098H4.04664C5.40656 9.1957 7.35156 7.04234 9.74609 5.41805C12.7108 3.4068 16.1806 2.34375 19.7804 2.34375C24.5555 2.34375 29.0448 4.20008 32.4212 7.57078C35.7971 10.9409 37.6562 15.4217 37.6562 20.1876H40C40 14.7949 37.8966 9.72508 34.0772 5.91211C30.2583 2.09961 25.1809 0 19.7804 0C15.7096 0 11.7848 1.20281 8.43031 3.47844C5.92664 5.17687 3.85742 7.38734 2.34375 9.95945V7.33367H0V14.0537H6.7293V11.7098Z" fill="#00A738"/>
<path d="M15.0442 10.5164V16.2372L20.0002 19.0985L24.9562 16.2372V10.5164L20.0002 7.65503L15.0442 10.5164Z" fill="#00A738"/>
<path d="M21.1719 21.1301V26.8509L26.1279 29.7122L31.0838 26.8509V21.1282L26.1295 18.2678L21.1719 21.1301Z" fill="#00A738"/>
<path d="M13.8706 18.2678L8.91626 21.1282V26.8509L13.8722 29.7122L18.8282 26.8509V21.1301L13.8706 18.2678Z" fill="#00A738"/>
</g>
<defs>
<clipPath id="clip0_5354_9">
<rect width="40" height="40" fill="white"/>
</clipPath>
</defs>
</svg>
