<svg width="40" height="40" viewBox="0 0 40 40" fill="none" xmlns="http://www.w3.org/2000/svg">
<g clip-path="url(#clip0_4674_32365)">
<path d="M18.8447 40V36.1816C10.4536 35.5785 3.81069 28.5596 3.81069 20.0176C3.81069 11.081 11.081 3.81069 20.0176 3.81069C28.5597 3.81069 35.5786 10.4536 36.1817 18.8447H40.0001C39.3926 8.33536 30.6791 0 20.0176 0C8.96216 0 0 8.96216 0 20.0176C0 30.6791 8.33536 39.3926 18.8447 40Z" fill="#0084F7"/>
<path d="M33.8326 18.8901C33.2569 11.7723 27.281 6.15625 20.0176 6.15625C12.3746 6.15625 6.15649 12.3743 6.15649 20.0173C6.15649 27.2808 11.7726 33.2567 18.8903 33.8322C19.4856 25.8654 25.8657 19.4853 33.8326 18.8901Z" fill="#0084F7"/>
<path d="M35.0514 21.1904C27.4085 21.1904 21.1904 27.4085 21.1904 35.0514V38.8622L38.8622 21.1904H35.0514Z" fill="#0084F7"/>
</g>
<defs>
<clipPath id="clip0_4674_32365">
<rect width="40" height="40" fill="white"/>
</clipPath>
</defs>
</svg>
