<svg width="40" height="40" viewBox="0 0 40 40" fill="none" xmlns="http://www.w3.org/2000/svg">
<g clip-path="url(#clip0_4674_32363)">
<path d="M39.4495 11.9749L20.6214 0.178047C20.2415 -0.06 19.7585 -0.06 19.3786 0.178047L0.550469 11.9749C0.208281 12.1889 0 12.5643 0 12.9683C0 13.3723 0.208281 13.7477 0.550469 13.9616L19.3786 25.6804C19.5686 25.7994 19.7848 25.8589 20 25.8589C20.2152 25.8589 20.4314 25.7994 20.6214 25.6804L39.4495 13.9616C39.7917 13.7477 40 13.3723 40 12.9683C40 12.5643 39.7917 12.1889 39.4495 11.9749Z" fill="#0084F7"/>
<path d="M39.4495 26.0379L37.6249 24.8975L20.6214 35.4758C20.4314 35.5948 20.2152 35.6543 20 35.6543C19.7848 35.6543 19.5686 35.5948 19.3786 35.4758L2.37508 24.8975L0.550469 26.0379C0.208281 26.2518 0 26.6272 0 27.0312C0 27.4352 0.208281 27.8106 0.550469 28.0246L19.3786 39.8214C19.5686 39.9404 19.7848 40 20 40C20.2152 40 20.4314 39.9404 20.6214 39.8214L39.4495 28.0246C39.7917 27.8106 40 27.4352 40 27.0312C40 26.6272 39.7917 26.2518 39.4495 26.0379Z" fill="#0084F7"/>
<path d="M39.4495 19.0066L37.6249 17.8662L20.6214 28.4446C20.4314 28.5636 20.2152 28.6231 20 28.6231C19.7848 28.6231 19.5686 28.5636 19.3786 28.4446L2.37508 17.8662L0.550469 19.0066C0.208281 19.2206 0 19.596 0 20C0 20.4039 0.208281 20.7793 0.550469 20.9933L19.3786 32.7121C19.5686 32.8311 19.7848 32.8906 20 32.8906C20.2152 32.8906 20.4314 32.8311 20.6214 32.7121L39.4495 20.9933C39.7917 20.7793 40 20.4039 40 20C40 19.596 39.7917 19.2206 39.4495 19.0066Z" fill="#0084F7"/>
</g>
<defs>
<clipPath id="clip0_4674_32363">
<rect width="40" height="40" fill="white"/>
</clipPath>
</defs>
</svg>
