<svg width="40" height="40" viewBox="0 0 40 40" fill="none" xmlns="http://www.w3.org/2000/svg">
<g clip-path="url(#clip0_4806_5184)">
<path d="M20.3902 17.7902C19.6384 18.0577 18.8281 17.4999 18.8281 16.6848V9.45312H13.2457C12.2342 9.45312 11.6985 10.6524 12.3725 11.4066C12.757 11.8358 12.9688 12.3909 12.9688 12.9688C12.9688 14.2608 11.917 15.3125 10.625 15.3125C9.33297 15.3125 8.28125 14.2608 8.28125 12.9688C8.28125 12.3909 8.49297 11.8358 8.8775 11.4066C9.55149 10.6524 9.01578 9.45312 8.0043 9.45312H3.51562C1.57703 9.45312 0 11.0302 0 12.9688V27.0312C0 28.9698 1.57703 30.5469 3.51562 30.5469H5.9375C5.9375 33.1321 8.03977 35.2344 10.625 35.2344C13.2102 35.2344 15.3125 33.1321 15.3125 30.5469H18.8281V23.3154C18.8281 22.511 19.665 21.9584 20.3902 22.2099C21.8459 22.7284 23.5145 21.5588 23.5156 20.0001C23.5156 18.4391 21.8482 17.2706 20.3902 17.7902Z" fill="#0084F7"/>
<path d="M36.4844 9.45312H34.0625C34.0625 6.86789 31.9602 4.76562 29.375 4.76562C26.7898 4.76562 24.6875 6.86789 24.6875 9.45312H21.1719V15.3125C23.7571 15.3125 25.8594 17.4148 25.8594 20C25.8594 22.5852 23.7571 24.6875 21.1719 24.6875V30.5469H36.4844C38.423 30.5469 40 28.9698 40 27.0312V12.9688C40 11.0302 38.423 9.45312 36.4844 9.45312Z" fill="#0084F7"/>
</g>
<defs>
<clipPath id="clip0_4806_5184">
<rect width="40" height="40" fill="white"/>
</clipPath>
</defs>
</svg>
