<svg width="41" height="40" viewBox="0 0 41 40" fill="none" xmlns="http://www.w3.org/2000/svg">
<g clip-path="url(#clip0_5354_1744)">
<g clip-path="url(#clip1_5354_1744)">
<path d="M21.0567 17.7902C20.3049 18.0577 19.4946 17.4999 19.4946 16.6848V9.45312H13.9122C12.9007 9.45312 12.365 10.6524 13.039 11.4066C13.4235 11.8358 13.6353 12.3909 13.6353 12.9688C13.6353 14.2608 12.5835 15.3125 11.2915 15.3125C9.99947 15.3125 8.94775 14.2608 8.94775 12.9688C8.94775 12.3909 9.15947 11.8358 9.544 11.4066C10.218 10.6524 9.68229 9.45312 8.6708 9.45312H4.18213C2.24354 9.45312 0.666504 11.0302 0.666504 12.9688V27.0312C0.666504 28.9698 2.24354 30.5469 4.18213 30.5469H6.604C6.604 33.1321 8.70627 35.2344 11.2915 35.2344C13.8767 35.2344 15.979 33.1321 15.979 30.5469H19.4946V23.3154C19.4946 22.511 20.3315 21.9584 21.0567 22.2099C22.5124 22.7284 24.181 21.5588 24.1821 20.0001C24.1821 18.4391 22.5147 17.2706 21.0567 17.7902Z" fill="#00A738"/>
<path d="M37.1509 9.45312H34.729C34.729 6.86789 32.6267 4.76562 30.0415 4.76562C27.4563 4.76562 25.354 6.86789 25.354 9.45312H21.8384V15.3125C24.4236 15.3125 26.5259 17.4148 26.5259 20C26.5259 22.5852 24.4236 24.6875 21.8384 24.6875V30.5469H37.1509C39.0895 30.5469 40.6665 28.9698 40.6665 27.0312V12.9688C40.6665 11.0302 39.0895 9.45312 37.1509 9.45312Z" fill="#00A738"/>
</g>
</g>
<defs>
<clipPath id="clip0_5354_1744">
<rect width="40" height="40" fill="white" transform="translate(0.666504)"/>
</clipPath>
<clipPath id="clip1_5354_1744">
<rect width="40" height="40" fill="white" transform="translate(0.666504)"/>
</clipPath>
</defs>
</svg>
