<svg width="40" height="40" viewBox="0 0 40 40" fill="none" xmlns="http://www.w3.org/2000/svg">
<g clip-path="url(#clip0_4674_32366)">
<path d="M9.93936 16.3112C14.2869 16.3112 17.8239 12.7742 17.8239 8.42673C17.4275 -2.01862 2.44976 -2.01589 2.05493 8.42681C2.05501 12.7742 5.59192 16.3112 9.93936 16.3112Z" fill="#0084F7"/>
<path d="M39.8415 14.7159L31.683 0.5846C31.2478 -0.191078 30.0884 -0.190843 29.6534 0.5846L21.4947 14.7159C21.0406 15.4807 21.6205 16.4846 22.5095 16.4737H38.8267C39.716 16.4846 40.2955 15.4804 39.8415 14.7159Z" fill="#0084F7"/>
<path d="M37.5531 21.9824H23.7463C23.0991 21.9824 22.5745 22.5071 22.5745 23.1543V36.9611C22.5745 37.6082 23.0991 38.1329 23.7463 38.1329H37.5531C38.2003 38.1329 38.7249 37.6082 38.7249 36.9611V23.1543C38.7249 22.5071 38.2003 21.9824 37.5531 21.9824Z" fill="#0084F7"/>
<path d="M10.7677 20.4623C10.3101 20.0048 9.56814 20.0047 9.1105 20.4623L0.343211 29.2297C-0.114352 29.6873 -0.11443 30.4292 0.343133 30.8868L9.11112 39.6543C9.56869 40.1118 10.3107 40.1119 10.7683 39.6543L19.5357 30.8869C19.9933 30.4294 19.9933 29.6874 19.5358 29.2298L10.7677 20.4623Z" fill="#0084F7"/>
</g>
<defs>
<clipPath id="clip0_4674_32366">
<rect width="40" height="40" fill="white"/>
</clipPath>
</defs>
</svg>
