<svg width="40" height="40" viewBox="0 0 40 40" fill="none" xmlns="http://www.w3.org/2000/svg">
<g clip-path="url(#clip0_4806_5376)">
<path d="M6.61467 18.6096L10.5654 14.6589L10.1276 14.017C9.36785 12.902 9.50969 11.3996 10.4636 10.4457C11.5605 9.34882 13.3439 9.34979 14.4408 10.4448L22.5641 18.5683L26.5412 14.5912L18.4179 6.46771C15.1293 3.17743 9.77532 3.17743 6.48674 6.46771C3.38494 9.56952 3.15789 14.4494 5.95745 17.8185L6.61467 18.6096Z" fill="#0084F7"/>
<path d="M13.9758 29.8926C13.0959 30.5518 11.5012 30.6038 10.4565 29.5308C9.35956 28.4331 9.35956 26.647 10.4555 25.551L18.5827 17.4441L14.5937 13.4551L6.46844 21.5803C3.17719 24.8718 3.17719 30.2275 6.46844 33.519C8.11542 35.166 10.2661 36 12.4277 36C14.3283 36 16.237 35.3545 17.8163 34.0471L18.6093 33.3899L14.6266 29.4055L13.9758 29.8926Z" fill="#0084F7"/>
<path d="M34.0464 22.1838L33.3918 21.3936L29.4294 25.3276L29.8669 25.9712C30.626 27.0872 30.4841 28.5896 29.522 29.5518C28.4873 30.6121 26.6223 30.6157 25.5503 29.5447L17.4434 21.4175L13.4543 25.4065L21.5798 33.5317C23.2258 35.178 25.3875 36 27.5488 36C29.7104 36 31.8721 35.178 33.5181 33.5317C36.6135 30.4363 36.8406 25.5583 34.0464 22.1838Z" fill="#0084F7"/>
<path d="M25.9795 10.0261C27.0305 9.29465 28.6245 9.4282 29.5437 10.3694C30.6404 11.467 30.6404 13.2534 29.5427 14.351L21.4375 22.4763L25.4065 26.445L33.5317 18.3198C35.1238 16.7268 36 14.6074 36 12.3506C36 9.81174 34.8455 7.3718 32.8909 5.80539C30.1206 3.58982 25.9136 3.39035 22.897 5.33493C22.6609 5.48508 22.4246 5.65622 22.1885 5.84934L21.3892 6.50315L25.3333 10.4763L25.9795 10.0261Z" fill="#0084F7"/>
</g>
<defs>
<clipPath id="clip0_4806_5376">
<rect width="32" height="32" fill="white" transform="translate(4 4)"/>
</clipPath>
</defs>
</svg>
