<svg width="40" height="40" viewBox="0 0 40 40" fill="none" xmlns="http://www.w3.org/2000/svg">
<g clip-path="url(#clip0_5142_6598)">
<path d="M31.9568 9.36914L25.8236 15.5023C26.1138 16.043 26.3771 16.6224 26.5996 17.2413L27.9105 16.6128L28.311 17.4715C28.3436 17.5412 29.108 19.2021 29.108 21.1496C29.108 26.1736 25.0221 30.261 20 30.261C17.533 30.261 15.2925 29.2743 13.6506 27.6753L9.3689 31.9571C12.3008 34.5706 16.0403 36.0002 20 36.0002C24.2737 36.0002 28.2917 34.3359 31.3137 31.3139C34.3356 28.2919 36 24.274 36 20.0002C36 16.0405 34.5703 12.301 31.9568 9.36914Z" fill="#0084F7"/>
<path d="M12.4434 26.2307C11.4643 24.7782 10.892 23.0294 10.892 21.1494C10.892 19.2019 11.6564 17.541 11.6889 17.4712L12.0895 16.6126L13.4003 17.2411C15.1355 12.4141 19.3454 9.97062 19.5363 9.862L20 9.59794L20.4638 9.862C20.6036 9.94156 22.8983 11.2733 24.7984 13.8759L30.6311 8.04319C27.6992 5.42963 23.9597 4 20 4C15.7262 4 11.7083 5.66431 8.68631 8.68631C5.66431 11.7083 4 15.7262 4 20C4 23.9597 5.42963 27.6992 8.04313 30.6311L12.4434 26.2307Z" fill="#0084F7"/>
<path d="M15.7508 27.0015C15.6529 26.6375 15.5999 26.2552 15.5999 25.8606C15.5999 22.5119 19.3216 19.9923 19.48 19.8866L20 19.54L20.5201 19.8866C20.6785 19.9923 24.4002 22.5119 24.4002 25.8606C24.4002 26.2552 24.3472 26.6375 24.2493 27.0015C26.0562 25.6846 27.233 23.5521 27.233 21.1495C27.233 20.4018 27.0827 19.6911 26.9298 19.1622L25.4054 19.8931L25.1188 18.792C24.1242 14.9708 21.1539 12.5943 20 11.7935C18.8474 12.5933 15.8761 14.9699 14.8812 18.792L14.5947 19.8931L13.0697 19.1619C12.9171 19.6898 12.7671 20.3995 12.7671 21.1495C12.767 23.5521 13.9438 25.6846 15.7508 27.0015Z" fill="#0084F7"/>
<path d="M22.5251 25.8608C22.5251 24.2321 21.0004 22.6463 20.0014 21.8354C19.0027 22.6493 17.4749 24.2404 17.4749 25.8608C17.4749 27.2531 18.6076 28.3859 20 28.3859C21.3924 28.3859 22.5251 27.2531 22.5251 25.8608Z" fill="#0084F7"/>
</g>
<defs>
<clipPath id="clip0_5142_6598">
<rect width="32" height="32" fill="white" transform="translate(4 4)"/>
</clipPath>
</defs>
</svg>
