<svg width="41" height="40" viewBox="0 0 41 40" fill="none" xmlns="http://www.w3.org/2000/svg">
<g clip-path="url(#clip0_5354_1506)">
<path d="M6.94793 18.6096L10.8986 14.6589L10.4609 14.017C9.7011 12.902 9.84294 11.3996 10.7968 10.4457C11.8937 9.34882 13.6772 9.34979 14.7741 10.4448L22.8974 18.5683L26.8744 14.5912L18.7511 6.46771C15.4626 3.17743 10.1086 3.17743 6.82 6.46771C3.71819 9.56952 3.49114 14.4494 6.2907 17.8185L6.94793 18.6096Z" fill="#00A738"/>
<path d="M14.309 29.8926C13.4291 30.5518 11.8344 30.6038 10.7897 29.5308C9.69281 28.4331 9.69281 26.647 10.7888 25.551L18.916 17.4441L14.9269 13.4551L6.8017 21.5803C3.51044 24.8718 3.51044 30.2275 6.8017 33.519C8.44867 35.166 10.5993 36 12.7609 36C14.6616 36 16.5703 35.3545 18.1496 34.0471L18.9426 33.3899L14.9599 29.4055L14.309 29.8926Z" fill="#00A738"/>
<path d="M34.3796 22.1838L33.7251 21.3936L29.7627 25.3276L30.2002 25.9712C30.9592 27.0872 30.8174 28.5896 29.8552 29.5518C28.8206 30.6121 26.9556 30.6157 25.8835 29.5447L17.7766 21.4175L13.7876 25.4065L21.9131 33.5317C23.5591 35.178 25.7207 36 27.8821 36C30.0437 36 32.2053 35.178 33.8513 33.5317C36.9468 30.4363 37.1738 25.5583 34.3796 22.1838Z" fill="#00A738"/>
<path d="M26.3127 10.0261C27.3638 9.29465 28.9578 9.4282 29.877 10.3694C30.9736 11.467 30.9736 13.2534 29.876 14.351L21.7708 22.4763L25.7397 26.445L33.865 18.3198C35.457 16.7268 36.3333 14.6074 36.3333 12.3506C36.3333 9.81174 35.1787 7.3718 33.2241 5.80539C30.4539 3.58982 26.2468 3.39035 23.2302 5.33493C22.9941 5.48508 22.7578 5.65622 22.5217 5.84934L21.7224 6.50315L25.6665 10.4763L26.3127 10.0261Z" fill="#00A738"/>
</g>
<defs>
<clipPath id="clip0_5354_1506">
<rect width="32" height="32" fill="white" transform="translate(4.33325 4)"/>
</clipPath>
</defs>
</svg>
