<svg width="40" height="40" viewBox="0 0 40 40" fill="none" xmlns="http://www.w3.org/2000/svg">
<circle cx="13.3333" cy="29.9998" r="8.33333" fill="#0084F7"/>
<circle cx="13.3333" cy="30" r="5" fill="white"/>
<rect x="10" y="1.6665" width="8.33333" height="25" rx="4.16667" fill="#0084F7"/>
<rect x="11.6667" y="5" width="3.33333" height="16.6667" fill="white"/>
<path d="M13.75 1.25C12.4245 1.25182 11.1538 1.77919 10.2165 2.71648C9.27919 3.65376 8.75182 4.92448 8.75 6.25V22.825C7.22127 23.8895 6.07215 25.414 5.4699 27.1768C4.86765 28.9396 4.8437 30.8486 5.40154 32.6259C5.95937 34.4033 7.06988 35.9562 8.57142 37.0587C10.073 38.1612 11.8872 38.7557 13.75 38.7557C15.6128 38.7557 17.427 38.1612 18.9286 37.0587C20.4301 35.9562 21.5406 34.4033 22.0985 32.6259C22.6563 30.8486 22.6323 28.9396 22.0301 27.1768C21.4278 25.414 20.2787 23.8895 18.75 22.825V6.25C18.7482 4.92448 18.2208 3.65376 17.2835 2.71648C16.3462 1.77919 15.0755 1.25182 13.75 1.25ZM21.25 30C21.2514 31.3026 20.9135 32.5831 20.2696 33.7154C19.6257 34.8478 18.6979 35.7929 17.5778 36.4577C16.4576 37.1225 15.1836 37.4841 13.8812 37.5068C12.5788 37.5296 11.2929 37.2128 10.1501 36.5876C9.00738 35.9623 8.04718 35.0503 7.36406 33.9412C6.68095 32.832 6.29848 31.5641 6.25432 30.2623C6.21015 28.9604 6.50581 27.6695 7.11219 26.5166C7.71857 25.3638 8.61475 24.3887 9.7125 23.6875C9.80052 23.631 9.87296 23.5534 9.92319 23.4617C9.97341 23.3699 9.99983 23.2671 10 23.1625V6.25C10 5.25544 10.3951 4.30161 11.0983 3.59835C11.8016 2.89509 12.7554 2.5 13.75 2.5C14.7446 2.5 15.6984 2.89509 16.4017 3.59835C17.1049 4.30161 17.5 5.25544 17.5 6.25V23.1625C17.5002 23.2671 17.5266 23.3699 17.5768 23.4617C17.627 23.5534 17.6995 23.631 17.7875 23.6875C18.8499 24.3626 19.7244 25.2953 20.3298 26.3989C20.9351 27.5025 21.2517 28.7413 21.25 30Z" fill="#0084F7"/>
<path d="M16.25 24.1875V6.25C16.25 5.58696 15.9866 4.95107 15.5178 4.48223C15.0489 4.01339 14.413 3.75 13.75 3.75C13.087 3.75 12.4511 4.01339 11.9822 4.48223C11.5134 4.95107 11.25 5.58696 11.25 6.25V24.1875L10.3875 24.7375C9.24779 25.4649 8.37469 26.5423 7.89922 27.808C7.42374 29.0737 7.37153 30.4594 7.75042 31.7573C8.1293 33.0552 8.91885 34.1952 10.0006 35.0063C11.0823 35.8175 12.3979 36.2559 13.75 36.2559C15.1021 36.2559 16.4177 35.8175 17.4994 35.0063C18.5812 34.1952 19.3707 33.0552 19.7496 31.7573C20.1285 30.4594 20.0763 29.0737 19.6008 27.808C19.1253 26.5423 18.2522 25.4649 17.1125 24.7375L16.25 24.1875ZM11.25 27.5C11.3736 27.5 11.4945 27.5367 11.5972 27.6053C11.7 27.674 11.7801 27.7716 11.8274 27.8858C11.8747 28 11.8871 28.1257 11.863 28.2469C11.8389 28.3682 11.7794 28.4795 11.6919 28.5669C11.6045 28.6544 11.4932 28.7139 11.3719 28.738C11.2507 28.7621 11.125 28.7497 11.0108 28.7024C10.8966 28.6551 10.799 28.575 10.7303 28.4722C10.6617 28.3694 10.625 28.2486 10.625 28.125C10.625 27.9592 10.6908 27.8003 10.8081 27.6831C10.9253 27.5658 11.0842 27.5 11.25 27.5ZM13.75 33.75C12.8538 33.7473 11.988 33.4247 11.3086 32.8403C10.6291 32.2559 10.1806 31.4482 10.0438 30.5625C10.0235 30.4783 10.0209 30.3909 10.0362 30.3057C10.0515 30.2205 10.0843 30.1394 10.1326 30.0675C10.1808 29.9956 10.2435 29.9346 10.3166 29.8882C10.3897 29.8419 10.4717 29.8112 10.5573 29.7982C10.6428 29.7851 10.7302 29.79 10.8138 29.8125C10.8974 29.835 10.9754 29.8746 11.0429 29.9289C11.1104 29.9831 11.1658 30.0508 11.2058 30.1276C11.2457 30.2044 11.2693 30.2886 11.275 30.375C11.369 30.965 11.6694 31.5024 12.1227 31.8916C12.5759 32.2807 13.1526 32.4963 13.75 32.5C13.9158 32.5 14.0747 32.5658 14.1919 32.6831C14.3092 32.8003 14.375 32.9592 14.375 33.125C14.375 33.2908 14.3092 33.4497 14.1919 33.5669C14.0747 33.6842 13.9158 33.75 13.75 33.75ZM15 8.125H14.375C14.2092 8.125 14.0503 8.19085 13.9331 8.30806C13.8158 8.42527 13.75 8.58424 13.75 8.75C13.75 8.91576 13.8158 9.07473 13.9331 9.19194C14.0503 9.30915 14.2092 9.375 14.375 9.375H15V11.875H12.5V6.25C12.5 5.91848 12.6317 5.60054 12.8661 5.36612C13.1005 5.1317 13.4185 5 13.75 5C14.0815 5 14.3995 5.1317 14.6339 5.36612C14.8683 5.60054 15 5.91848 15 6.25V8.125Z" fill="#0084F7"/>
<path fill-rule="evenodd" clip-rule="evenodd" d="M35.3285 7.36592L25.7819 16.5793L23.2485 13.8726C22.7819 13.4326 22.0485 13.4059 21.5152 13.7792C20.9952 14.1659 20.8485 14.8459 21.1685 15.3926L24.1685 20.2726C24.4619 20.7259 24.9685 21.0059 25.5419 21.0059C26.0885 21.0059 26.6085 20.7259 26.9019 20.2726C27.3819 19.6459 36.5419 8.72592 36.5419 8.72592C37.7419 7.49925 36.2885 6.41925 35.3285 7.35258V7.36592Z" fill="#0084F7"/>
<path d="M12.5 13.3335H15V20.0002H12.5L12.5 13.3335Z" fill="white"/>
<path d="M12.5 17.9165C12.5 17.2261 13.0596 16.6665 13.75 16.6665C14.4404 16.6665 15 17.2261 15 17.9165V22.0832C15 22.7735 14.4404 23.3332 13.75 23.3332C13.0596 23.3332 12.5 22.7735 12.5 22.0832V17.9165Z" fill="white"/>
</svg>
