<svg width="40" height="40" viewBox="0 0 40 40" fill="none" xmlns="http://www.w3.org/2000/svg">
<g clip-path="url(#clip0_5354_1726)">
<path d="M34.5367 29.0217C30.2367 31.8201 25.1884 33.3367 20.0034 33.3367C14.8184 33.3367 9.77007 31.8201 5.47007 29.0217L3.07007 31.4201C8.03674 34.8217 13.9534 36.6701 20.0034 36.6701C26.0534 36.6701 31.9701 34.8217 36.9367 31.4201L34.5367 29.0217Z" fill="#00A738"/>
<path d="M20.0035 30.0033C25.1585 30.0033 29.3368 25.8267 29.3368 20.6717C29.3368 14.005 20.0035 3.33667 20.0035 3.33667C20.0035 3.33667 10.6702 14.005 10.6702 20.6717C10.6702 21.8973 10.9116 23.1109 11.3807 24.2431C11.8497 25.3754 12.5372 26.4042 13.4039 27.2707C14.2706 28.1373 15.2996 28.8246 16.4319 29.2935C17.5643 29.7623 18.7779 30.0036 20.0035 30.0033ZM20.0035 23.7533C20.9979 23.7529 21.9515 23.3577 22.6547 22.6545C23.3578 21.9513 23.7531 20.9978 23.7535 20.0033H26.2535C26.2522 21.6605 25.5933 23.2495 24.4215 24.4213C23.2496 25.5931 21.6607 26.252 20.0035 26.2533V23.7533Z" fill="#00A738"/>
</g>
<defs>
<clipPath id="clip0_5354_1726">
<rect width="40" height="40" fill="white"/>
</clipPath>
</defs>
</svg>
