<svg width="40" height="40" viewBox="0 0 40 40" fill="none" xmlns="http://www.w3.org/2000/svg">
<g clip-path="url(#clip0_5142_6596)">
<path d="M21.8456 8.6416H18.1542V14.5099L15.1399 19.7313C15.637 19.8473 16.0068 20.0125 16.3317 20.1581C16.8204 20.3768 17.2057 20.5497 18.06 20.5497C18.9136 20.5497 19.2996 20.3768 19.7875 20.1581C20.3606 19.9014 21.0729 19.5829 22.3779 19.5829C23.6829 19.5829 24.3951 19.9014 24.9682 20.1581C25.0315 20.1862 25.0926 20.2136 25.1538 20.2404L21.8456 14.5099V8.6416Z" fill="#0084F7"/>
<path d="M22.378 21.6924C21.5237 21.6924 21.1383 21.8646 20.6497 22.0833C20.0773 22.34 19.3644 22.6592 18.0601 22.6592C16.7551 22.6592 16.0428 22.34 15.4698 22.0833C15.0345 21.8886 14.6816 21.7304 14.0044 21.698L11.6539 25.7698C11.1997 26.5566 11.1997 27.4967 11.6539 28.2835C12.1081 29.0703 12.9216 29.54 13.8301 29.54H26.1699C27.0783 29.54 27.8919 29.0703 28.3461 28.2835C28.8003 27.4967 28.8003 26.5566 28.3461 25.7698L26.5496 22.6578C25.3374 22.6346 24.6568 22.3301 24.1062 22.0833C23.6176 21.8646 23.2323 21.6924 22.378 21.6924Z" fill="#0084F7"/>
<path d="M9.82719 24.7152L16.0449 13.9447V6.53234H23.9551V13.9447L24.178 14.3307L31.9609 6.54781C28.6625 3.60734 24.455 2 20 2C15.192 2 10.6716 3.87242 7.27203 7.27203C3.87242 10.6716 2 15.192 2 20C2 24.455 3.60734 28.6625 6.54781 31.9609L9.605 28.903C8.99961 27.553 9.07344 26.0195 9.82719 24.7152Z" fill="#0084F7"/>
<path d="M33.4521 8.03906L25.2698 16.222L30.1727 24.7151C31.0087 26.1621 31.0087 27.8904 30.1727 29.3381C29.3374 30.7852 27.8405 31.6493 26.1698 31.6493H13.83C12.7282 31.6493 11.7016 31.2731 10.8902 30.6016L8.03906 33.4521C11.3374 36.3926 15.5449 37.9999 19.9999 37.9999C24.8079 37.9999 29.3283 36.1275 32.7279 32.7279C36.1275 29.3283 37.9999 24.8079 37.9999 19.9999C37.9999 15.5449 36.3926 11.3374 33.4521 8.03906Z" fill="#0084F7"/>
</g>
<defs>
<clipPath id="clip0_5142_6596">
<rect width="36" height="36" fill="white" transform="translate(2 2)"/>
</clipPath>
</defs>
</svg>
