<svg width="40" height="40" viewBox="0 0 40 40" fill="none" xmlns="http://www.w3.org/2000/svg">
<g clip-path="url(#clip0_4674_32367)">
<path d="M3.75 31.875C5.47589 31.875 6.875 30.4759 6.875 28.75C6.875 27.0241 5.47589 25.625 3.75 25.625C2.02411 25.625 0.625 27.0241 0.625 28.75C0.625 30.4759 2.02411 31.875 3.75 31.875Z" fill="#0084F7"/>
<path d="M16.975 23.8501L19.925 26.1876C19.9456 26.206 19.9723 26.2162 20 26.2162C20.0277 26.2162 20.0544 26.206 20.075 26.1876L23.025 23.8501C25.1609 22.1094 26.5405 19.61 26.875 16.8751L25.2938 16.3813C23.6682 15.875 22.1219 15.1428 20.7 14.2063L20.075 13.7938C20.0541 13.7817 20.0304 13.7754 20.0062 13.7754C19.9821 13.7754 19.9584 13.7817 19.9375 13.7938L19.3125 14.2063C17.8906 15.1428 16.3443 15.875 14.7187 16.3813L13.125 16.8751C13.4595 19.61 14.8391 22.1094 16.975 23.8501Z" fill="#0084F7"/>
<path d="M3.75 14.375C5.47589 14.375 6.875 12.9759 6.875 11.25C6.875 9.52411 5.47589 8.125 3.75 8.125C2.02411 8.125 0.625 9.52411 0.625 11.25C0.625 12.9759 2.02411 14.375 3.75 14.375Z" fill="#0084F7"/>
<path d="M10.9438 16.3375C11.0981 16.4197 11.2787 16.4376 11.4461 16.3872C11.6135 16.3369 11.7542 16.2224 11.8376 16.0687C11.8793 15.9921 11.9054 15.9079 11.9144 15.8211C11.9235 15.7343 11.9153 15.6465 11.8903 15.5629C11.8653 15.4793 11.8241 15.4014 11.7689 15.3337C11.7137 15.2661 11.6457 15.21 11.5688 15.1688L7.7126 13.125C7.5214 13.5274 7.273 13.9 6.9751 14.2313L10.9438 16.3375Z" fill="#0084F7"/>
<path d="M3.125 15.5752V24.4252C3.539 24.3585 3.961 24.3585 4.375 24.4252V15.5752C3.961 15.6419 3.539 15.6419 3.125 15.5752Z" fill="#0084F7"/>
<path d="M11.5687 25.0001C11.6486 24.9629 11.7197 24.9092 11.7774 24.8426C11.8351 24.7759 11.8781 24.6979 11.9034 24.6135C11.9288 24.529 11.9361 24.4402 11.9247 24.3528C11.9133 24.2654 11.8836 24.1814 11.8375 24.1063C11.8003 24.0264 11.7466 23.9553 11.6799 23.8976C11.6133 23.8399 11.5352 23.797 11.4508 23.7716C11.3664 23.7462 11.2776 23.739 11.1902 23.7503C11.1028 23.7617 11.0188 23.7914 10.9437 23.8376L7.07495 25.9188C7.36566 26.2549 7.60187 26.6345 7.77495 27.0438L11.5687 25.0001Z" fill="#0084F7"/>
<path d="M16.15 34.1689L7.96255 29.9189C7.84945 30.3225 7.67896 30.7077 7.4563 31.0627L15.7188 35.3564C15.8043 34.9418 15.9496 34.5418 16.15 34.1689Z" fill="#0084F7"/>
<path d="M19.375 29.375V31.925C19.789 31.8583 20.211 31.8583 20.625 31.925V29.375C20.625 29.2092 20.5592 29.0503 20.4419 28.9331C20.3247 28.8158 20.1658 28.75 20 28.75C19.8342 28.75 19.6753 28.8158 19.5581 28.9331C19.4408 29.0503 19.375 29.2092 19.375 29.375Z" fill="#0084F7"/>
<path d="M20 39.375C21.7259 39.375 23.125 37.9759 23.125 36.25C23.125 34.5241 21.7259 33.125 20 33.125C18.2741 33.125 16.875 34.5241 16.875 36.25C16.875 37.9759 18.2741 39.375 20 39.375Z" fill="#0084F7"/>
<path d="M20 6.875C21.7259 6.875 23.125 5.47589 23.125 3.75C23.125 2.02411 21.7259 0.625 20 0.625C18.2741 0.625 16.875 2.02411 16.875 3.75C16.875 5.47589 18.2741 6.875 20 6.875Z" fill="#0084F7"/>
<path d="M19.3313 8.06885V10.8751C19.3223 10.9671 19.3327 11.0599 19.3617 11.1477C19.3908 11.2354 19.4379 11.3161 19.5 11.3845C19.5621 11.453 19.6378 11.5077 19.7223 11.5451C19.8068 11.5825 19.8982 11.6019 19.9906 11.6019C20.083 11.6019 20.1744 11.5825 20.2589 11.5451C20.3434 11.5077 20.4192 11.453 20.4813 11.3845C20.5434 11.3161 20.5905 11.2354 20.6195 11.1477C20.6486 11.0599 20.659 10.9671 20.65 10.8751V8.06885C20.435 8.10361 20.2178 8.12241 20 8.1251C19.776 8.12241 19.5525 8.10362 19.3313 8.06885Z" fill="#0084F7"/>
<path d="M7.96255 10.0811L16.15 5.83105C15.9496 5.45817 15.8043 5.05817 15.7188 4.64355L7.4563 8.9373C7.67896 9.29234 7.84945 9.67753 7.96255 10.0811Z" fill="#0084F7"/>
<path d="M36.25 31.875C37.9759 31.875 39.375 30.4759 39.375 28.75C39.375 27.0241 37.9759 25.625 36.25 25.625C34.5241 25.625 33.125 27.0241 33.125 28.75C33.125 30.4759 34.5241 31.875 36.25 31.875Z" fill="#0084F7"/>
<path d="M36.25 14.375C37.9759 14.375 39.375 12.9759 39.375 11.25C39.375 9.52411 37.9759 8.125 36.25 8.125C34.5241 8.125 33.125 9.52411 33.125 11.25C33.125 12.9759 34.5241 14.375 36.25 14.375Z" fill="#0084F7"/>
<path d="M32.2874 13.125L28.4312 15.2C28.3543 15.2413 28.2863 15.2974 28.2311 15.365C28.176 15.4326 28.1347 15.5105 28.1097 15.5941C28.0848 15.6778 28.0766 15.7655 28.0856 15.8523C28.0946 15.9391 28.1207 16.0233 28.1624 16.1C28.2458 16.2537 28.3865 16.3681 28.5539 16.4185C28.7213 16.4688 28.9019 16.4509 29.0562 16.3688L33.0249 14.2313C32.727 13.9 32.4786 13.5274 32.2874 13.125Z" fill="#0084F7"/>
<path d="M36.875 24.4252V15.5752C36.461 15.6419 36.039 15.6419 35.625 15.5752V24.4252C36.039 24.3585 36.461 24.3585 36.875 24.4252Z" fill="#0084F7"/>
<path d="M29.0564 23.8312C28.9813 23.7851 28.8973 23.7554 28.8099 23.744C28.7225 23.7326 28.6336 23.7399 28.5492 23.7652C28.4648 23.7906 28.3868 23.8336 28.3201 23.8913C28.2535 23.9489 28.1998 24.0201 28.1626 24.1C28.1154 24.1753 28.0848 24.2598 28.0728 24.3479C28.0609 24.436 28.0678 24.5256 28.0933 24.6108C28.1187 24.696 28.162 24.7748 28.2203 24.8419C28.2786 24.909 28.3506 24.9629 28.4314 25L32.2251 27.0437C32.3982 26.6344 32.6344 26.2548 32.9251 25.9187L29.0564 23.8312Z" fill="#0084F7"/>
<path d="M32.0376 29.9189L23.8501 34.1689C24.0505 34.5418 24.1958 34.9418 24.2813 35.3564L32.5438 31.0627C32.3212 30.7077 32.1507 30.3225 32.0376 29.9189Z" fill="#0084F7"/>
<path d="M23.8501 5.83105L32.0376 10.0811C32.1507 9.67753 32.3212 9.29234 32.5438 8.9373L24.2813 4.64355C24.1958 5.05817 24.0505 5.45817 23.8501 5.83105Z" fill="#0084F7"/>
</g>
<defs>
<clipPath id="clip0_4674_32367">
<rect width="40" height="40" fill="white"/>
</clipPath>
</defs>
</svg>
