<svg width="41" height="40" viewBox="0 0 41 40" fill="none" xmlns="http://www.w3.org/2000/svg">
<path d="M20.6666 7.40527C14.1801 7.40527 8.88281 12.7026 8.88281 19.1891C8.88281 22.9188 10.6125 26.3242 13.5855 28.5945C14.8828 29.5674 15.6936 30.9728 15.8558 32.4323H19.5855V21.2431L16.1261 17.7837C15.6936 17.3512 15.6936 16.7026 16.1261 16.2701C16.5585 15.8377 17.2071 15.8377 17.6396 16.2701L20.6666 19.2431L23.6396 16.2701C24.072 15.8377 24.7206 15.8377 25.1531 16.2701C25.5855 16.7026 25.5855 17.3512 25.1531 17.7837L21.7477 21.2431V32.4323H25.4774C25.6396 30.9188 26.4504 29.5674 27.7477 28.5945C30.7206 26.3242 32.4504 22.9188 32.4504 19.1891C32.4504 12.6485 27.1531 7.40527 20.6666 7.40527Z" fill="#00A738"/>
<path d="M15.9099 36.7026C15.9099 38.2161 17.1532 39.4593 18.6667 39.4593H22.6667C24.1802 39.4593 25.4234 38.2161 25.4234 36.7026V34.5945H15.9099V36.7026Z" fill="#00A738"/>
<path d="M20.6665 5.67566C21.2611 5.67566 21.7476 5.18918 21.7476 4.59458V1.62161C21.7476 1.02701 21.2611 0.540527 20.6665 0.540527C20.0719 0.540527 19.5854 1.02701 19.5854 1.62161V4.59458C19.5854 5.18918 20.0719 5.67566 20.6665 5.67566Z" fill="#00A738"/>
<path d="M33.8557 6.00011C33.4233 5.56767 32.7746 5.56767 32.3422 6.00011L30.18 8.10821C29.7476 8.54065 29.7476 9.18929 30.18 9.62173C30.3963 9.83794 30.6665 9.94605 30.9368 9.94605C31.2071 9.94605 31.4773 9.83794 31.6936 9.62173L33.8017 7.51362C34.2341 7.08119 34.2341 6.43254 33.8557 6.00011Z" fill="#00A738"/>
<path d="M38.18 18.054H35.2071C34.6125 18.054 34.126 18.5404 34.126 19.135C34.126 19.7296 34.6125 20.2161 35.2071 20.2161H38.18C38.7746 20.2161 39.2611 19.7296 39.2611 19.135C39.2611 18.5404 38.7746 18.054 38.18 18.054Z" fill="#00A738"/>
<path d="M6.12608 18.054H3.1531C2.55851 18.054 2.07202 18.5404 2.07202 19.135C2.07202 19.7296 2.55851 20.2161 3.1531 20.2161H6.12608C6.72067 20.2161 7.20716 19.7296 7.20716 19.135C7.20716 18.5404 6.72067 18.054 6.12608 18.054Z" fill="#00A738"/>
<path d="M10.3965 9.94605C10.6667 9.94605 10.937 9.83794 11.1532 9.62173C11.5857 9.18929 11.5857 8.54065 11.1532 8.10821L9.04511 6.00011C8.61268 5.56767 7.96403 5.56767 7.5316 6.00011C7.09917 6.43254 7.09917 7.08119 7.5316 7.51362L9.63971 9.62173C9.85592 9.83794 10.1262 9.94605 10.3965 9.94605Z" fill="#00A738"/>
</svg>
