<svg width="40" height="40" viewBox="0 0 40 40" fill="none" xmlns="http://www.w3.org/2000/svg">
<path fill-rule="evenodd" clip-rule="evenodd" d="M33.5082 36.3125H36.0556V36.2911C36.184 36.2911 36.3125 36.1841 36.3125 36.0344V3.94421C36.3125 3.81586 36.2055 3.6875 36.0556 3.6875H33.5082C33.4011 3.6875 33.2727 3.83725 33.2727 3.83725L32.3948 5.61291C31.9026 6.57563 31.9026 7.73086 32.3948 8.71495L33.5724 11.0682C33.6795 11.3036 33.6795 11.5817 33.5724 11.7956L32.3948 14.1703C31.9026 15.133 31.9026 16.2882 32.3948 17.2724L33.5724 19.6256C33.6795 19.8609 33.6795 20.1391 33.5724 20.353L32.3948 22.7276C31.9026 23.6904 31.9026 24.8456 32.3948 25.8298L33.5724 28.183C33.6795 28.4184 33.6795 28.6965 33.5724 28.9105L32.3948 31.285C31.9026 32.2479 31.9026 33.4244 32.3948 34.3871L33.2727 36.1627C33.3155 36.2483 33.5082 36.3125 33.5082 36.3125ZM22.7617 30.6003C22.997 30.8571 23.2968 31.0069 23.5965 31.0069C23.832 31.0069 24.0461 30.9427 24.2602 30.7929C27.6854 28.2258 29.6548 24.3107 29.6548 20.0107C29.6548 15.7105 27.6854 11.7742 24.2602 9.22834C24.0247 9.05719 23.7464 8.97163 23.468 9.0144C23.1683 9.05719 22.9328 9.20694 22.7403 9.44226C22.5476 9.6776 22.5048 9.9771 22.5476 10.2552C22.6118 10.5333 22.7617 10.7687 22.9756 10.9184C25.8658 13.1005 27.5141 16.3952 27.5141 20.0107C27.5141 23.6262 25.8658 26.9208 22.9756 29.0814C22.5048 29.4452 22.3977 30.087 22.7617 30.6003ZM20.2141 26.5999C20.4282 26.8778 20.7494 27.0276 21.0705 27.0276L21.0491 27.0062C21.263 27.0062 21.4771 26.942 21.6912 26.7925C23.8534 25.1879 25.095 22.6848 25.095 19.9893C25.095 17.2936 23.8534 14.812 21.6912 13.1647C21.2202 12.8224 20.5567 12.9294 20.1927 13.4001C20.0214 13.614 19.9572 13.9135 20 14.1916C20.0428 14.4697 20.2141 14.7264 20.4282 14.8762C22.0552 16.0742 22.9756 17.9569 22.9756 19.9893C22.9756 22.0215 22.0552 23.8614 20.4282 25.081C19.9572 25.4445 19.8715 26.1078 20.2141 26.5999ZM16.639 23.2413C16.6818 23.2841 16.7889 23.2841 16.7889 23.2841H16.8745C18.2446 22.792 19.1866 21.487 19.1866 20.0109C19.1866 18.5348 18.266 17.2082 16.8745 16.7377C16.7889 16.7163 16.7032 16.7377 16.639 16.7805C16.5748 16.8233 16.532 16.9945 16.532 16.9945V23.0273C16.532 23.1129 16.5748 23.1985 16.639 23.2413ZM7.15552 23.4765H8.22588C8.35434 23.4765 8.48278 23.3695 8.48278 23.2197V16.8017C8.48278 16.6733 8.37573 16.5449 8.22588 16.5449H7.15552C5.25024 16.5449 3.6875 18.1066 3.6875 20.0107C3.6875 21.9145 5.22885 23.4765 7.15552 23.4765ZM14.4983 26.7713C14.5411 26.8141 14.6482 26.8141 14.6482 26.8141V26.8354C14.6696 26.8354 14.691 26.8299 14.7124 26.8246C14.7338 26.8193 14.7552 26.8141 14.7766 26.8141C14.8622 26.7713 14.9264 26.5787 14.9264 26.5787V13.4644C14.9264 13.3575 14.8622 13.2719 14.7766 13.2291C14.691 13.1649 14.4983 13.2291 14.4983 13.2291L10.2168 16.0958C10.1312 16.1386 10.0884 16.3098 10.0884 16.3098V23.7118C10.0884 23.7974 10.2168 23.9258 10.2168 23.9258L14.4983 26.7713Z" fill="#0084F7"/>
</svg>
