<svg width="41" height="40" viewBox="0 0 41 40" fill="none" xmlns="http://www.w3.org/2000/svg">
<path fill-rule="evenodd" clip-rule="evenodd" d="M31.9998 26.6666C29.2415 26.6666 26.9998 28.9083 26.9998 31.6666C26.9998 34.4249 29.2415 36.6666 31.9998 36.6666C34.7582 36.6666 36.9998 34.4249 36.9998 31.6666C36.9998 28.9083 34.7582 26.6666 31.9998 26.6666ZM29.7415 32.2583L31.4082 33.9249C31.5998 34.1166 31.8665 34.1999 32.1332 34.1583C32.3998 34.1166 32.6248 33.9499 32.7415 33.7083L34.4082 30.3749C34.6165 29.9666 34.4498 29.4583 34.0332 29.2583C33.6248 29.0499 33.1165 29.2166 32.9165 29.6333L31.7665 31.9333L30.9165 31.0833C30.5915 30.7583 30.0665 30.7583 29.7415 31.0833C29.4165 31.4083 29.4165 31.9333 29.7415 32.2666V32.2583ZM12.8332 14.1666H8.6665C8.20817 14.1666 7.83317 14.5416 7.83317 14.9999C7.83317 15.4583 8.20817 15.8333 8.6665 15.8333H11.7748C11.4915 16.3666 11.2498 16.9249 11.0415 17.4999H6.99984C6.5415 17.4999 6.1665 17.8749 6.1665 18.3333C6.1665 18.7916 6.5415 19.1666 6.99984 19.1666H10.5832C10.4748 19.7083 10.3998 20.2666 10.3582 20.8333H4.49984C4.0415 20.8333 3.6665 21.2083 3.6665 21.6666C3.6665 22.1249 4.0415 22.4999 4.49984 22.4999H10.3582C10.3998 23.0666 10.4748 23.6249 10.5832 24.1666H6.99984C6.5415 24.1666 6.1665 24.5416 6.1665 24.9999C6.1665 25.4583 6.5415 25.8333 6.99984 25.8333H11.0415C11.2498 26.4083 11.4915 26.9666 11.7748 27.4999H8.6665C8.20817 27.4999 7.83317 27.8749 7.83317 28.3333C7.83317 28.7916 8.20817 29.1666 8.6665 29.1666H12.8332C15.1165 32.1999 18.7415 34.1666 22.8332 34.1666C23.8165 34.1666 24.7748 34.0499 25.6915 33.8333C25.4582 33.1499 25.3332 32.4249 25.3332 31.6666C25.3332 31.2499 25.3748 30.8499 25.4415 30.4583C24.6165 30.7083 23.7415 30.8333 22.8332 30.8333C17.7748 30.8333 13.6665 26.7249 13.6665 21.6666C13.6665 16.6083 17.7748 12.4999 22.8332 12.4999C27.8915 12.4999 31.9998 16.6083 31.9998 21.6666C31.9998 22.8499 31.7748 23.9916 31.3582 25.0333C31.5665 25.0166 31.7832 24.9999 31.9998 24.9999C32.9665 24.9999 33.8832 25.2083 34.7082 25.5749C35.1165 24.3416 35.3332 23.0333 35.3332 21.6666C35.3332 15.6249 31.0332 10.5749 25.3332 9.41659V8.33325H26.1665C27.5498 8.33325 28.6665 7.21659 28.6665 5.83325C28.6665 4.44992 27.5498 3.33325 26.1665 3.33325H19.4998C18.1165 3.33325 16.9998 4.44992 16.9998 5.83325C16.9998 7.21659 18.1165 8.33325 19.4998 8.33325H20.3332V9.41659C17.2832 10.0333 14.6415 11.7666 12.8332 14.1666ZM26.1998 28.3833C26.8915 27.1749 27.9415 26.1999 29.2165 25.6083C29.2248 25.5916 29.2415 25.5666 29.2498 25.5499C29.9332 24.4166 30.3332 23.0916 30.3332 21.6666C30.3332 17.5249 26.9748 14.1666 22.8332 14.1666C18.6915 14.1666 15.3332 17.5249 15.3332 21.6666C15.3332 25.8083 18.6915 29.1666 22.8332 29.1666C23.9998 29.1666 25.0998 28.8999 26.0832 28.4249C26.1165 28.4083 26.1582 28.3916 26.1998 28.3833ZM4.49984 24.1666C4.95817 24.1666 5.33317 24.5416 5.33317 24.9999C5.33317 25.4583 4.95817 25.8333 4.49984 25.8333C4.0415 25.8333 3.6665 25.4583 3.6665 24.9999C3.6665 24.5416 4.0415 24.1666 4.49984 24.1666ZM21.9998 15.8333V21.6666C21.9998 21.8916 22.0915 22.0999 22.2415 22.2583L24.7415 24.7583C25.0665 25.0833 25.5915 25.0833 25.9248 24.7583C26.2498 24.4333 26.2498 23.9083 25.9248 23.5749L23.6665 21.3166V15.8249C23.6665 15.3666 23.2915 14.9916 22.8332 14.9916C22.3748 14.9916 21.9998 15.3666 21.9998 15.8249V15.8333ZM4.49984 17.4999C4.95817 17.4999 5.33317 17.8749 5.33317 18.3333C5.33317 18.7916 4.95817 19.1666 4.49984 19.1666C4.0415 19.1666 3.6665 18.7916 3.6665 18.3333C3.6665 17.8749 4.0415 17.4999 4.49984 17.4999Z" fill="#00A738"/>
</svg>
