<svg width="40" height="40" viewBox="0 0 40 40" fill="none" xmlns="http://www.w3.org/2000/svg">
<g clip-path="url(#clip0_4674_32368)">
<path d="M34.5367 29.0215C30.2367 31.8198 25.1884 33.3365 20.0034 33.3365C14.8184 33.3365 9.77007 31.8198 5.47007 29.0215L3.07007 31.4198C8.03674 34.8215 13.9534 36.6698 20.0034 36.6698C26.0534 36.6698 31.9701 34.8215 36.9367 31.4198L34.5367 29.0215Z" fill="#0084F7"/>
<path d="M20.0035 30.0031C25.1585 30.0031 29.3368 25.8264 29.3368 20.6714C29.3368 14.0048 20.0035 3.33643 20.0035 3.33643C20.0035 3.33643 10.6702 14.0048 10.6702 20.6714C10.6702 21.897 10.9116 23.1106 11.3807 24.2429C11.8497 25.3752 12.5372 26.404 13.4039 27.2705C14.2706 28.137 15.2996 28.8244 16.4319 29.2932C17.5643 29.7621 18.7779 30.0033 20.0035 30.0031ZM20.0035 23.7531C20.9979 23.7527 21.9515 23.3574 22.6547 22.6543C23.3578 21.9511 23.7531 20.9975 23.7535 20.0031H26.2535C26.2522 21.6603 25.5933 23.2492 24.4215 24.421C23.2496 25.5929 21.6607 26.2518 20.0035 26.2531V23.7531Z" fill="#0084F7"/>
</g>
<defs>
<clipPath id="clip0_4674_32368">
<rect width="40" height="40" fill="white"/>
</clipPath>
</defs>
</svg>
