<svg width="32" height="32" viewBox="0 0 32 32" fill="white" xmlns="http://www.w3.org/2000/svg">
<path d="M28.5874 16.5266C28.9326 16.5266 29.2124 16.2552 29.2124 15.9205C29.2124 15.5858 28.9326 15.3145 28.5874 15.3145C28.2422 15.3145 27.9624 15.5858 27.9624 15.9205C27.9624 16.2552 28.2422 16.5266 28.5874 16.5266Z" fill="currentColor"/>
<path d="M31.3738 6.15684H29.2132V4.13265C29.2132 3.9492 29.1277 3.7755 28.9804 3.66023C28.8333 3.54496 28.6402 3.50035 28.4552 3.53902L15.9847 6.14284L3.54506 3.53908C3.36013 3.50047 3.16687 3.54484 3.01962 3.66017C2.87231 3.77544 2.78669 3.94914 2.78669 4.13265V6.15684H0.62625C0.280375 6.15684 0 6.42872 0 6.76405V27.8659C0 28.2013 0.280375 28.4731 0.62625 28.4731H31.3738C31.7196 28.4731 32 28.2013 32 27.8659V6.76405C32 6.42872 31.7196 6.15684 31.3738 6.15684ZM4.03912 4.88496L15.3587 7.25429L15.3732 27.1137L4.03912 24.7443V4.88496ZM1.25244 7.37132H2.78669V25.2346C2.78669 25.5207 2.99256 25.7679 3.28094 25.8282L10.1234 27.2587H1.25244V7.37132ZM30.7476 27.2587H21.8766L28.7191 25.8282C29.0074 25.7679 29.2133 25.5207 29.2133 25.2345V18.656C29.2133 18.3207 28.9329 18.0488 28.5871 18.0488C28.2412 18.0488 27.9608 18.3207 27.9608 18.656V24.7443L16.6256 27.114L16.6111 7.25441L27.9608 4.88459V13.206C27.9608 13.5414 28.2412 13.8133 28.5871 13.8133C28.9329 13.8133 29.2133 13.5414 29.2133 13.206V7.37132H30.7476V27.2587Z" fill="currentColor"/>
<path d="M6.0908 12.7459L13.0796 14.2087C13.4638 14.2891 13.8379 13.9958 13.8379 13.6151V10.5789C13.8379 10.2929 13.6321 10.0457 13.3438 9.98531L6.35505 8.52247C6.17018 8.48374 5.97687 8.52822 5.82962 8.64356C5.6823 8.75883 5.59668 8.93253 5.59668 9.11604V12.1523C5.59668 12.4383 5.80249 12.6856 6.0908 12.7459ZM6.84918 9.86835L12.5855 11.069V12.8628L6.84918 11.6621V9.86835Z" fill="currentColor"/>
<path d="M6.0909 15.7829L13.0796 17.2458C13.4185 17.3166 13.7596 17.0976 13.8263 16.7683C13.8911 16.4482 13.6725 16.1274 13.3439 16.0586L6.35515 14.5958C6.01708 14.5252 5.68383 14.7334 5.6109 15.0612C5.53796 15.389 5.75283 15.7121 6.0909 15.7829Z" fill="currentColor"/>
<path d="M13.3439 19.0948L6.35515 17.6319C6.01708 17.5613 5.68383 17.7696 5.6109 18.0974C5.53796 18.4252 5.75283 18.7483 6.0909 18.8191L13.0796 20.2819C13.4185 20.3528 13.7596 20.1337 13.8263 19.8045C13.8911 19.4844 13.6725 19.1636 13.3439 19.0948Z" fill="currentColor"/>
<path d="M13.3439 22.1309L6.35515 20.668C6.01708 20.5974 5.68383 20.8057 5.6109 21.1335C5.53796 21.4613 5.75283 21.7844 6.0909 21.8552L13.0796 23.318C13.4185 23.3889 13.7596 23.1699 13.8263 22.8406C13.8911 22.5205 13.6725 22.1997 13.3439 22.1309Z" fill="currentColor"/>
<path d="M25.7079 8.52252L18.7192 9.98537C18.39 10.0543 18.1728 10.3748 18.2368 10.6951C18.3026 11.0245 18.6451 11.2433 18.9835 11.1725L25.9722 9.70967C26.3103 9.63889 26.5251 9.31579 26.4522 8.98798C26.3792 8.66016 26.046 8.45198 25.7079 8.52252Z" fill="currentColor"/>
<path d="M25.7079 11.5597L18.7192 13.0225C18.39 13.0914 18.1728 13.412 18.2368 13.7322C18.3026 14.0616 18.6451 14.2805 18.9835 14.2097L25.9722 12.7468C26.3103 12.6761 26.5251 12.353 26.4522 12.0251C26.3792 11.6973 26.046 11.489 25.7079 11.5597Z" fill="currentColor"/>
<path d="M26.2329 14.7167C26.0856 14.6014 25.8925 14.5571 25.7075 14.5957L18.7187 16.0585C18.4304 16.1189 18.2246 16.3661 18.2246 16.6521V22.7245C18.2246 23.1052 18.5987 23.3984 18.983 23.3181L25.9717 21.8552C26.26 21.7949 26.4659 21.5477 26.4659 21.2617V15.1892C26.4658 15.0057 26.3802 14.832 26.2329 14.7167ZM25.2134 20.7715L19.477 21.9722V17.1422L25.2134 15.9415V20.7715Z" fill="currentColor"/>
</svg>
