<svg width="28" height="28" viewBox="0 0 28 28" fill="none" xmlns="http://www.w3.org/2000/svg">
<mask id="mask0_5214_13757" style="mask-type:luminance" maskUnits="userSpaceOnUse" x="0" y="0" width="28" height="28">
<path d="M0 1.90735e-06H28V28H0V1.90735e-06Z" fill="white"/>
</mask>
<g mask="url(#mask0_5214_13757)">
<path d="M14.875 26.9062C14.875 27.5103 15.3647 28 15.9688 28C16.5728 28 17.0625 27.5103 17.0625 26.9062C17.0625 24.7386 18.8212 22.9687 20.974 22.9687H21.901C24.0539 22.9687 25.8125 24.7386 25.8125 26.9062C25.8125 27.5103 26.3022 28 26.9063 28C27.5103 28 28 27.5103 28 26.9062C28 23.5452 25.2767 20.7813 21.901 20.7812H20.974C17.5983 20.7813 14.875 23.5452 14.875 26.9062Z" fill="currentColor"/>
<path d="M23.8438 14.4922C23.8438 15.8513 22.7419 16.9531 21.3828 16.9531C20.0237 16.9531 18.9219 15.8513 18.9219 14.4922C18.9219 13.1331 20.0237 12.0312 21.3828 12.0312C22.7419 12.0312 23.8438 13.1331 23.8438 14.4922ZM26.0313 14.4922C26.0313 11.9249 23.9501 9.84374 21.3828 9.84374C18.8156 9.84374 16.7344 11.9249 16.7344 14.4922C16.7344 17.0594 18.8156 19.1406 21.3828 19.1406C23.9501 19.1406 26.0313 17.0594 26.0313 14.4922Z" fill="currentColor"/>
<path d="M0 6.56133V21.4386C7.26039e-07 25.0623 2.93768 28 6.56142 28H11.5938L11.622 27.9996C12.213 27.9847 12.6875 27.5009 12.6875 26.9062C12.6875 26.3116 12.213 25.8278 11.622 25.8128L11.5938 25.8125H6.56142C4.1458 25.8125 2.18753 23.8542 2.18753 21.4386V6.56133L2.18789 6.50481C2.21816 4.11526 4.16466 2.18747 6.56142 2.18747H16.6273C19.0429 2.18747 21.0012 4.14571 21.0012 6.56133C21.0012 7.16539 21.4909 7.65509 22.0949 7.65509C22.699 7.65508 23.1886 7.16538 23.1886 6.56133C23.1886 2.93759 20.251 -1.33514e-05 16.6273 -1.33514e-05H6.56142C2.966 -1.33514e-05 0.0459695 2.89186 0.00056076 6.47653L0 6.56133Z" fill="currentColor"/>
<path d="M8.20312 6.89063C8.20312 7.6457 7.59101 8.25781 6.83594 8.25781C6.08087 8.25781 5.46875 7.6457 5.46875 6.89063C5.46875 6.13556 6.08087 5.52344 6.83594 5.52344C7.59101 5.52344 8.20312 6.13556 8.20312 6.89063Z" fill="currentColor"/>
<path d="M12.9062 6.89063C12.9062 7.6457 12.2941 8.25781 11.5391 8.25781C10.784 8.25781 10.1719 7.6457 10.1719 6.89063C10.1719 6.13556 10.784 5.52344 11.5391 5.52344C12.2941 5.52344 12.9062 6.13556 12.9062 6.89063Z" fill="currentColor"/>
<path d="M17.6094 6.89063C17.6094 7.6457 16.9973 8.25781 16.2422 8.25781C15.4871 8.25781 14.875 7.6457 14.875 6.89063C14.875 6.13556 15.4871 5.52344 16.2422 5.52344C16.9973 5.52344 17.6094 6.13556 17.6094 6.89063Z" fill="currentColor"/>
<path d="M8.20312 11.5938C8.20312 12.3488 7.59101 12.9609 6.83594 12.9609C6.08087 12.9609 5.46875 12.3488 5.46875 11.5938C5.46875 10.8387 6.08087 10.2266 6.83594 10.2266C7.59101 10.2266 8.20312 10.8387 8.20312 11.5938Z" fill="currentColor"/>
<path d="M8.20312 16.2969C8.20312 17.0519 7.59101 17.6641 6.83594 17.6641C6.08087 17.6641 5.46875 17.0519 5.46875 16.2969C5.46875 15.5418 6.08087 14.9297 6.83594 14.9297C7.59101 14.9297 8.20312 15.5418 8.20312 16.2969Z" fill="currentColor"/>
<path d="M8.20312 21C8.20312 21.7551 7.59101 22.3672 6.83594 22.3672C6.08087 22.3672 5.46875 21.7551 5.46875 21C5.46875 20.2449 6.08087 19.6328 6.83594 19.6328C7.59101 19.6328 8.20312 20.2449 8.20312 21Z" fill="currentColor"/>
<path d="M12.9062 11.5938C12.9062 12.3488 12.2941 12.9609 11.5391 12.9609C10.784 12.9609 10.1719 12.3488 10.1719 11.5938C10.1719 10.8387 10.784 10.2266 11.5391 10.2266C12.2941 10.2266 12.9062 10.8387 12.9062 11.5938Z" fill="currentColor"/>
<path d="M12.9062 16.2969C12.9062 17.0519 12.2941 17.6641 11.5391 17.6641C10.784 17.6641 10.1719 17.0519 10.1719 16.2969C10.1719 15.5418 10.784 14.9297 11.5391 14.9297C12.2941 14.9297 12.9062 15.5418 12.9062 16.2969Z" fill="currentColor"/>
<path d="M12.9062 21C12.9062 21.7551 12.2941 22.3672 11.5391 22.3672C10.784 22.3672 10.1719 21.7551 10.1719 21C10.1719 20.2449 10.784 19.6328 11.5391 19.6328C12.2941 19.6328 12.9062 20.2449 12.9062 21Z" fill="currentColor"/>
</g>
</svg>
