<svg width="40" height="41" viewBox="0 0 40 41" fill="none" xmlns="http://www.w3.org/2000/svg">
<path d="M4 4.5C4 2.29086 5.79086 0.5 8 0.5H24L36 12.5V36.5C36 38.7091 34.2091 40.5 32 40.5H8C5.79086 40.5 4 38.7091 4 36.5V4.5Z" fill="#D92D20"/>
<path opacity="0.3" d="M24 0.5L36 12.5H28C25.7909 12.5 24 10.7091 24 8.5V0.5Z" fill="white"/>
<path d="M24.124 32.4996V25.9541H28.4578V27.0951H25.5079V28.6547H28.1702V29.7957H25.5079V32.4996H24.124Z" fill="white"/>
<path d="M19.8965 32.4996H17.5762V25.9541H19.9157C20.574 25.9541 21.1408 26.0851 21.6159 26.3472C22.0911 26.6072 22.4565 26.9811 22.7122 27.469C22.97 27.9569 23.0989 28.5407 23.0989 29.2204C23.0989 29.9023 22.97 30.4882 22.7122 30.9782C22.4565 31.4683 22.089 31.8444 21.6096 32.1064C21.1323 32.3685 20.5613 32.4996 19.8965 32.4996ZM18.96 31.3138H19.839C20.248 31.3138 20.5922 31.2414 20.8713 31.0965C21.1525 30.9495 21.3635 30.7226 21.5041 30.4157C21.6468 30.1068 21.7182 29.7084 21.7182 29.2204C21.7182 28.7368 21.6468 28.3415 21.5041 28.0347C21.3635 27.7279 21.1536 27.502 20.8745 27.3572C20.5953 27.2123 20.2512 27.1398 19.8422 27.1398H18.96V31.3138Z" fill="white"/>
<path d="M11.749 32.4996V25.9541H14.3314C14.8279 25.9541 15.2508 26.0489 15.6002 26.2385C15.9497 26.426 16.216 26.6871 16.3992 27.0216C16.5846 27.354 16.6773 27.7375 16.6773 28.1721C16.6773 28.6068 16.5835 28.9903 16.396 29.3227C16.2085 29.6551 15.9369 29.914 15.5811 30.0993C15.2274 30.2847 14.7991 30.3774 14.2963 30.3774H12.6503V29.2684H14.0725C14.3389 29.2684 14.5583 29.2226 14.7309 29.1309C14.9056 29.0372 15.0356 28.9083 15.1208 28.7442C15.2082 28.578 15.2519 28.3873 15.2519 28.1721C15.2519 27.9548 15.2082 27.7652 15.1208 27.6032C15.0356 27.4392 14.9056 27.3124 14.7309 27.2229C14.5562 27.1313 14.3346 27.0855 14.0661 27.0855H13.1329V32.4996H11.749Z" fill="white"/>
</svg>
