<svg width="24" height="16" viewBox="0 0 24 16" fill="none" xmlns="http://www.w3.org/2000/svg">
<path fill-rule="evenodd" clip-rule="evenodd" d="M0.633281 6.60651C-0.26925 7.54274 -0.150094 8.6107 0.630562 9.39135L6.77344 15.5341C7.04073 15.8014 7.40325 15.9515 7.78125 15.9515C8.15925 15.9515 8.52177 15.8014 8.78906 15.5341C9.05635 15.2668 9.20651 14.9043 9.20651 14.5263C9.20651 14.1483 9.05635 13.7857 8.78906 13.5185L3.27052 8.00001L8.78906 2.48141C8.92141 2.34907 9.02639 2.19195 9.09802 2.01903C9.16965 1.84611 9.20651 1.66077 9.20651 1.4736C9.20651 1.28643 9.16965 1.1011 9.09802 0.928178C9.02639 0.755257 8.92141 0.598137 8.78906 0.465789C8.65671 0.333441 8.49959 0.228457 8.32667 0.156831C8.15375 0.0852051 7.96842 0.0483398 7.78125 0.0483398C7.59408 0.0483398 7.40875 0.0852051 7.23583 0.156831C7.0629 0.228457 6.90579 0.333441 6.77344 0.465789L0.633328 6.60627L0.633281 6.60651ZM15.2109 2.48155L20.7295 8.00001L15.2109 13.5186C14.9436 13.7859 14.7935 14.1484 14.7935 14.5264C14.7935 14.9044 14.9436 15.2669 15.2109 15.5342C15.4782 15.8015 15.8407 15.9517 16.2188 15.9517C16.5968 15.9517 16.9593 15.8015 17.2266 15.5342L23.3667 9.39374C24.2692 8.45751 24.15 7.38955 23.3694 6.6089L17.2266 0.46593C16.9593 0.198642 16.5968 0.0484804 16.2188 0.0484804C15.8407 0.0484804 15.4782 0.198642 15.2109 0.46593C14.9436 0.733219 14.7935 1.09574 14.7935 1.47374C14.7935 1.85175 14.9436 2.21427 15.2109 2.48155Z" fill="white"/>
</svg>
